<!DOCTYPE svg PUBLIC "-//W3C//DTD SVG 1.1//EN" "http://www.w3.org/Graphics/SVG/1.1/DTD/svg11.dtd">
<!-- Uploaded to: SVG Repo, www.svgrepo.com, Transformed by: SVG Repo Mixer Tools -->
<svg height="800px" width="800px" version="1.1" id="_x32_" xmlns="http://www.w3.org/2000/svg" xmlns:xlink="http://www.w3.org/1999/xlink" viewBox="0 0 512 512" xml:space="preserve" fill="#3bba4a">
<g id="SVGRepo_bgCarrier" stroke-width="0"/>
<g id="SVGRepo_tracerCarrier" stroke-linecap="round" stroke-linejoin="round"/>
<g id="SVGRepo_iconCarrier"> <style type="text/css"> .st0{fill:#3bba4a;} </style> <g> <path class="st0" d="M489.121,100h-248.4c-12.641,0-22.881,10.24-22.881,22.88v246.56h118.468l0.733,0.002v-0.002h0.24 c0-3.84,0.318-7.6,0.959-10.88c5.199-30,31.199-51.84,61.68-51.84c30.48,0,56.48,21.84,61.68,51.6 c0.641,3.52,0.961,7.28,0.961,11.12h30.879c10.24,0,18.56-8.32,18.56-18.64V122.88C512,110.24,501.76,100,489.121,100z M464,160v32 H272v-32H464z M272,224h192v32H272V224z"/> <path class="st0" d="M39.359,152.56L0,265.44v104h39.992l0.248,0.002v-0.002h0.24c0-3.84,0.32-7.6,0.959-10.88 c5.281-30,31.201-51.84,61.682-51.84c30.478,0,56.478,21.84,61.68,51.6c0.639,3.36,0.959,6.96,0.959,11.12h33.041V138H61.039 C51.52,138,42.961,143.76,39.359,152.56z M169.121,245.2c0,5.6-4.48,10-10.082,10H50.721c-7.121,0-12-7.2-9.281-13.76L62.801,174 c1.52-3.76,5.199-6.24,9.279-6.24h86.959c5.602,0,10.082,4.48,10.082,10V245.2z"/> <path class="st0" d="M103.121,326.72c-20.961,0-38.48,15.28-41.922,35.28c-0.478,2.32-0.719,4.88-0.719,7.44 c0,23.44,19.119,42.56,42.641,42.56c23.6,0,42.638-19.12,42.638-42.56c0-2.56-0.16-5.12-0.638-7.44 C141.68,342,124.16,326.72,103.121,326.72z"/> <path class="st0" d="M399.92,326.72c-21.041,0-38.48,15.28-42,35.28c-0.4,2.32-0.639,4.88-0.639,7.44 c0,23.44,19.119,42.56,42.639,42.56c23.6,0,42.64-19.12,42.64-42.56c0-2.56-0.16-5.12-0.64-7.44 C438.4,342,420.961,326.72,399.92,326.72z"/> </g> </g>
</svg>